<svg xmlns="http://www.w3.org/2000/svg" viewBox="0 0 800 600" width="800" height="600" font-family="Inter, Arial, sans-serif">
  <defs>
    <linearGradient id="pg" x1="0" y1="0" x2="1" y2="1">
      <stop offset="0" stop-color="#7c3aed"/>
      <stop offset="1" stop-color="#10b981"/>
    </linearGradient>
  </defs>
  <rect width="800" height="600" fill="#f4f2fb"/>
  <rect x="40" y="34" width="720" height="532" rx="16" fill="#ffffff" stroke="#e6e0f5"/>
  <circle cx="66" cy="60" r="5" fill="#ef6a5e"/>
  <circle cx="84" cy="60" r="5" fill="#f4bd4f"/>
  <circle cx="102" cy="60" r="5" fill="#61c554"/>
  <line x1="40" y1="82" x2="760" y2="82" stroke="#eee6f7"/>
  <rect x="40" y="82" width="150" height="484" fill="#faf8ff"/>
  <rect x="62" y="110" width="106" height="12" rx="6" fill="url(#pg)"/>
  <rect x="62" y="150" width="90" height="9" rx="4.5" fill="#d9d1ee"/>
  <rect x="62" y="176" width="104" height="9" rx="4.5" fill="#d9d1ee"/>
  <rect x="62" y="202" width="78" height="9" rx="4.5" fill="#d9d1ee"/>
  <rect x="54" y="228" width="122" height="26" rx="8" fill="#ece6fd"/>
  <rect x="62" y="238" width="84" height="8" rx="4" fill="#7c3aed"/>
  <text x="212" y="118" font-size="20" font-weight="700" fill="#191428">Claims Dashboard</text>
  <text x="212" y="140" font-size="12" fill="#8a83a6">SafeGuardNZ - AI-assisted processing</text>
  <rect x="212" y="160" width="168" height="86" rx="12" fill="#ffffff" stroke="#e6e0f5"/>
  <text x="230" y="192" font-size="12" fill="#8a83a6">Auto-extracted</text>
  <text x="230" y="224" font-size="26" font-weight="800" fill="#7c3aed">1,284</text>
  <rect x="396" y="160" width="168" height="86" rx="12" fill="#ffffff" stroke="#e6e0f5"/>
  <text x="414" y="192" font-size="12" fill="#8a83a6">Avg. confidence</text>
  <text x="414" y="224" font-size="26" font-weight="800" fill="#10b981">96%</text>
  <rect x="580" y="160" width="150" height="86" rx="12" fill="#ffffff" stroke="#e6e0f5"/>
  <text x="598" y="192" font-size="12" fill="#8a83a6">Pending review</text>
  <text x="598" y="224" font-size="26" font-weight="800" fill="#191428">37</text>
  <rect x="212" y="262" width="352" height="284" rx="12" fill="#ffffff" stroke="#e6e0f5"/>
  <text x="230" y="292" font-size="13" font-weight="600" fill="#191428">Documents processed</text>
  <polyline points="232,500 280,470 328,486 376,430 424,446 472,384 520,360" fill="none" stroke="url(#pg)" stroke-width="4" stroke-linecap="round" stroke-linejoin="round"/>
  <circle cx="232" cy="500" r="4" fill="#7c3aed"/>
  <circle cx="328" cy="486" r="4" fill="#7c3aed"/>
  <circle cx="424" cy="446" r="4" fill="#7c3aed"/>
  <circle cx="520" cy="360" r="4" fill="#7c3aed"/>
  <rect x="580" y="262" width="150" height="284" rx="12" fill="#ffffff" stroke="#e6e0f5"/>
  <text x="598" y="292" font-size="13" font-weight="600" fill="#191428">Assistant</text>
  <rect x="598" y="308" width="114" height="34" rx="10" fill="#ece6fd"/>
  <rect x="608" y="318" width="80" height="7" rx="3.5" fill="#b79ff0"/>
  <rect x="608" y="330" width="60" height="7" rx="3.5" fill="#b79ff0"/>
  <rect x="616" y="352" width="96" height="30" rx="10" fill="#d6f5e8"/>
  <rect x="626" y="362" width="66" height="7" rx="3.5" fill="#57cfa2"/>
  <rect x="598" y="392" width="114" height="30" rx="10" fill="#ece6fd"/>
  <rect x="608" y="402" width="86" height="7" rx="3.5" fill="#b79ff0"/>
  <rect x="598" y="506" width="132" height="26" rx="13" fill="#f4f2fb" stroke="#e6e0f5"/>
  <text x="612" y="523" font-size="10" fill="#8a83a6">Ask about a claim...</text>
</svg>
