<svg xmlns="http://www.w3.org/2000/svg" viewBox="0 0 800 600" width="800" height="600" font-family="Inter, Arial, sans-serif">
  <defs>
    <linearGradient id="pg" x1="0" y1="0" x2="1" y2="1">
      <stop offset="0" stop-color="#7c3aed"/>
      <stop offset="1" stop-color="#10b981"/>
    </linearGradient>
    <linearGradient id="ph1" x1="0" y1="0" x2="1" y2="1">
      <stop offset="0" stop-color="#a78bfa"/>
      <stop offset="1" stop-color="#7c3aed"/>
    </linearGradient>
    <linearGradient id="ph2" x1="0" y1="0" x2="1" y2="1">
      <stop offset="0" stop-color="#34d399"/>
      <stop offset="1" stop-color="#10b981"/>
    </linearGradient>
    <linearGradient id="ph3" x1="0" y1="0" x2="1" y2="1">
      <stop offset="0" stop-color="#6ee7b7"/>
      <stop offset="1" stop-color="#7c3aed"/>
    </linearGradient>
    <linearGradient id="ph4" x1="0" y1="0" x2="1" y2="1">
      <stop offset="0" stop-color="#c4b5fd"/>
      <stop offset="1" stop-color="#34d399"/>
    </linearGradient>
  </defs>
  <rect width="800" height="600" fill="#f4f2fb"/>
  <rect x="40" y="34" width="720" height="532" rx="16" fill="#ffffff" stroke="#e6e0f5"/>
  <circle cx="66" cy="60" r="5" fill="#ef6a5e"/>
  <circle cx="84" cy="60" r="5" fill="#f4bd4f"/>
  <circle cx="102" cy="60" r="5" fill="#61c554"/>
  <line x1="40" y1="82" x2="760" y2="82" stroke="#eee6f7"/>

  <!-- top nav -->
  <text x="64" y="120" font-size="22" font-weight="800" fill="url(#pg)">Wanderlust</text>
  <rect x="240" y="102" width="360" height="30" rx="15" fill="#faf8ff" stroke="#e6e0f5"/>
  <circle cx="262" cy="117" r="6" fill="none" stroke="#b7add6" stroke-width="2"/>
  <line x1="266" y1="121" x2="271" y2="126" stroke="#b7add6" stroke-width="2"/>
  <text x="282" y="121" font-size="11" fill="#a79ec6">Search destinations, articles...</text>
  <rect x="632" y="102" width="96" height="30" rx="15" fill="url(#pg)"/>
  <text x="680" y="122" font-size="12" font-weight="600" fill="#ffffff" text-anchor="middle">Write</text>

  <!-- section heading -->
  <text x="64" y="176" font-size="15" font-weight="700" fill="#191428">Latest adventures</text>

  <!-- card 1 -->
  <rect x="64" y="194" width="320" height="172" rx="12" fill="#ffffff" stroke="#e6e0f5"/>
  <rect x="64" y="194" width="320" height="92" rx="12" fill="url(#ph1)"/>
  <rect x="64" y="270" width="320" height="16" fill="url(#ph1)"/>
  <rect x="80" y="300" width="200" height="10" rx="5" fill="#2b2340"/>
  <rect x="80" y="320" width="272" height="7" rx="3.5" fill="#d9d1ee"/>
  <rect x="80" y="334" width="230" height="7" rx="3.5" fill="#d9d1ee"/>
  <circle cx="86" cy="354" r="6" fill="#ece6fd"/>
  <rect x="98" y="351" width="64" height="7" rx="3.5" fill="#c4b8e8"/>
  <path d="M356 349 a5 5 0 0 1 8 0 a5 5 0 0 1 8 0 c0 6 -8 11 -8 11 c0 0 -8 -5 -8 -11 z" fill="#7c3aed"/>

  <!-- card 2 -->
  <rect x="416" y="194" width="320" height="172" rx="12" fill="#ffffff" stroke="#e6e0f5"/>
  <rect x="416" y="194" width="320" height="92" rx="12" fill="url(#ph2)"/>
  <rect x="416" y="270" width="320" height="16" fill="url(#ph2)"/>
  <rect x="432" y="300" width="176" height="10" rx="5" fill="#2b2340"/>
  <rect x="432" y="320" width="272" height="7" rx="3.5" fill="#d9d1ee"/>
  <rect x="432" y="334" width="210" height="7" rx="3.5" fill="#d9d1ee"/>
  <circle cx="438" cy="354" r="6" fill="#d6f5e8"/>
  <rect x="450" y="351" width="58" height="7" rx="3.5" fill="#a6e3cd"/>
  <path d="M708 349 a5 5 0 0 1 8 0 a5 5 0 0 1 8 0 c0 6 -8 11 -8 11 c0 0 -8 -5 -8 -11 z" fill="#10b981"/>

  <!-- card 3 -->
  <rect x="64" y="382" width="320" height="164" rx="12" fill="#ffffff" stroke="#e6e0f5"/>
  <rect x="64" y="382" width="320" height="84" rx="12" fill="url(#ph3)"/>
  <rect x="64" y="450" width="320" height="16" fill="url(#ph3)"/>
  <rect x="80" y="482" width="210" height="10" rx="5" fill="#2b2340"/>
  <rect x="80" y="502" width="272" height="7" rx="3.5" fill="#d9d1ee"/>
  <rect x="80" y="516" width="188" height="7" rx="3.5" fill="#d9d1ee"/>

  <!-- card 4 -->
  <rect x="416" y="382" width="320" height="164" rx="12" fill="#ffffff" stroke="#e6e0f5"/>
  <rect x="416" y="382" width="320" height="84" rx="12" fill="url(#ph4)"/>
  <rect x="416" y="450" width="320" height="16" fill="url(#ph4)"/>
  <rect x="432" y="482" width="188" height="10" rx="5" fill="#2b2340"/>
  <rect x="432" y="502" width="272" height="7" rx="3.5" fill="#d9d1ee"/>
  <rect x="432" y="516" width="204" height="7" rx="3.5" fill="#d9d1ee"/>
</svg>
